IKResults																																											
version=1																																											
nRows=14																																											
nColumns=44																																											
inDegrees=yes																																											
																																											
Units are S.I. units (second, meters, Newtons, ...)																																											
Angles are in degrees.																																											
																																											
endheader																																											
time	ground_spine_rot_x	ground_spine_rot_y	ground_spine_rot_z	ground_spine_tx	ground_spine_ty	ground_spine_tz	clav_prot	clav_elev	scapula_abduction	scapula_elevation	scapula_upward_rot	scapula_winging	plane_elv	shoulder_elv	axial_rot	elbow_flexion	pro_sup	clav_prot_l	clav_elev_l	pitch2	roll2	yaw2	aux7jnt_r3	aux7jnt_r1	aux7jnt_r2	aux6jnt_r3	aux6jnt_r1	aux6jnt_r2	aux5jnt_r3	aux5jnt_r1	aux5jnt_r2	aux4jnt_r3	aux4jnt_r1	aux4jnt_r2	aux3jnt_r3	aux3jnt_r1	aux3jnt_r2	pitch1	roll1	yaw1	aux1jnt_r3	aux1jnt_r1	aux1jnt_r2
1	0.93349855	2.69558765	0.65658754	-0.76376886	1.09247106	-0.61820482	-29.15290407	2.71837994	-2.25052284	-13.5844794	14.99817893	20.5252542	-69.92375251	35.89211406	68.80463927	0	34.32	30.42326055	-1.1607173	0.04211327	0.00200859	-0.01087262	0.45121503	0.01576644	-0.11711561	0.53083991	0.01806813	-0.13642715	0.53083991	0.02485803	-0.13642715	0.39812993	0.02485803	-0.13642715	0.26541995	0.0225564	-0.05855781	-0.23065231	0.00784555	-0.01894959	-7.34776102	0.22475847	-0.12051643
1.01	0.9788295	2.74988342	0.70537955	-0.76361087	1.09253068	-0.61852334	-29.21295944	2.78430088	-2.39285437	-13.52595233	14.99774753	20.55325776	-69.25937336	35.85091693	68.3643592	0	34.32	30.42326055	-1.1607173	0.02414209	0.00174638	-0.01097651	0.25866609	0.01370826	-0.11823464	0.3043123	0.01570949	-0.1377307	0.3043123	0.02161302	-0.1377307	0.22823422	0.02161302	-0.1377307	0.15215615	0.01961185	-0.05911732	-0.20734629	0.00633331	-0.01943199	-6.60531424	0.1814361	-0.12358441
1.02	0.95420695	2.7617591	0.67094257	-0.76368913	1.0925236	-0.61830967	-29.10508654	2.7084997	-2.15435853	-13.59100175	14.99835498	20.49505472	-69.66807414	35.99847885	69.46582604	0	34.32	30.42326055	-1.1607173	0.04229216	0.00024762	-0.0097061	0.45313179	0.00194373	-0.10455026	0.53309491	0.00222749	-0.12178986	0.53309491	0.00306457	-0.12178986	0.39982118	0.00306457	-0.12178986	0.26654746	0.00278082	-0.05227513	-0.23071862	0.00981184	-0.02001064	-7.3498732	0.28108852	-0.12726457
1.03	0.98472279	2.81521658	0.67705199	-0.76365284	1.09253005	-0.61848789	-29.14431626	2.74270259	-2.24378502	-13.56110583	14.99814609	20.51489388	-69.39513659	35.94368631	69.90626511	0	34.32	30.42326055	-1.1607173	0.04231371	-0.00115736	-0.00932635	0.45336266	-0.00908469	-0.10045973	0.53336652	-0.01041094	-0.11702484	0.53336652	-0.01432331	-0.11702484	0.40002489	-0.01432331	-0.11702484	0.26668326	-0.0129971	-0.05022987	-0.23064869	0.01065205	-0.02050156	-7.34764566	0.30515877	-0.13038672
1.04	1.01483238	2.93093845	0.66631242	-0.7636807	1.09251136	-0.61872705	-29.35315884	2.77580926	-2.65889917	-13.54241504	14.99802481	20.64924547	-68.94005602	35.81641757	66.83746308	0	34.32	30.42326055	-1.1607173	0.04454114	-0.0039286	-0.01103687	0.47722806	-0.03083759	-0.11888485	0.5614434	-0.03533948	-0.13848812	0.5614434	-0.04861985	-0.13848812	0.42108255	-0.04861985	-0.13848812	0.2807217	-0.04411809	-0.05944242	-0.2323258	0.01374751	-0.019213	-7.40107226	0.39383704	-0.12219168
1.05	0.97632084	2.88973714	0.70112814	-0.76350799	1.09255475	-0.61833105	-29.08141013	2.7225792	-2.11418301	-13.57627894	14.99852224	20.47644985	-69.03332365	35.95338986	70.17134487	0	34.32	30.42326055	-1.1607173	0.04221218	-0.00136349	-0.00920785	0.45227484	-0.01070276	-0.09918335	0.53208674	-0.01226523	-0.11553799	0.53208674	-0.01687443	-0.11553799	0.39906505	-0.01687443	-0.11553799	0.26604337	-0.01531201	-0.04959168	-0.23064759	0.01149985	-0.02032077	-7.34761071	0.32944644	-0.12923692
1.06	0.9861745	2.93612967	0.70388874	-0.76351772	1.09256789	-0.61838084	-29.03183874	2.74726271	-2.03021296	-13.55006144	14.99822089	20.43766978	-68.67598884	35.90466989	69.02502942	0	34.32	30.42326055	-1.1607173	0.04281446	-0.00059005	-0.00857473	0.45872778	-0.00463163	-0.09236361	0.53967842	-0.00530779	-0.10759372	0.53967842	-0.00730243	-0.10759372	0.40475882	-0.00730243	-0.10759372	0.26983921	-0.00662629	-0.0461818	-0.231293	0.00980868	-0.02123215	-7.36817115	0.28099803	-0.13503314
1.07	0.98286114	2.98850182	0.72152075	-0.76343321	1.09259562	-0.61830368	-29.00471068	2.7157252	-1.96563997	-13.57807653	14.9981632	20.42544066	-68.43992847	35.89219258	70.25630576	0	34.32	30.42326055	-1.1607173	0.0422868	-0.00105148	-0.00852047	0.45307434	-0.00825362	-0.09177909	0.53302733	-0.00945854	-0.10691281	0.53302733	-0.013013	-0.10691281	0.3997705	-0.013013	-0.10691281	0.26651367	-0.01180811	-0.04588954	-0.23085568	0.01087723	-0.02114291	-7.35423967	0.31160979	-0.13446562
1.08	1.00084912	3.036189	0.70425134	-0.76359032	1.09263436	-0.61838883	-28.99165831	2.71675686	-1.94119056	-13.57630632	14.99813643	20.41633697	-68.00345778	35.79795408	70.48337166	0	34.32	30.42326055	-1.1607173	0.04347359	-0.0012351	-0.00813374	0.46579	-0.00969493	-0.08761346	0.54798689	-0.01111027	-0.1020603	0.54798689	-0.01528545	-0.1020603	0.41099017	-0.01528545	-0.1020603	0.27399344	-0.01387015	-0.04380673	-0.2315917	0.01045415	-0.02205251	-7.37768644	0.29948933	-0.1402505
1.09	1.01726922	3.07633421	0.7105461	-0.76364621	1.09266656	-0.61843195	-28.88048726	2.69474788	-1.72012741	-13.59032357	14.99834391	20.34475432	-67.67707469	35.78098616	69.43738016	0	34.32	30.42326055	-1.1607173	0.04308516	-0.00233318	-0.00752393	0.46162819	-0.0183143	-0.08104484	0.54309066	-0.02098795	-0.09440856	0.54309066	-0.0288751	-0.09440856	0.40731799	-0.0288751	-0.09440856	0.27154533	-0.02620153	-0.04052242	-0.23126936	0.01163321	-0.02253686	-7.36741784	0.33326691	-0.14333094
1.1	1.07051093	3.14523256	0.70006642	-0.76378759	1.09269034	-0.61877969	-28.86710719	2.74789265	-1.71619755	-13.53949169	14.99813871	20.32525507	-67.04125304	35.62300797	69.9335711	0	34.32	30.42326055	-1.1607173	0.0440493	-0.00384087	-0.0058652	0.4719583	-0.03014897	-0.06317762	0.55524369	-0.03455033	-0.07359517	0.55524369	-0.04753414	-0.07359517	0.41643277	-0.04753414	-0.07359517	0.27762185	-0.0431329	-0.03158881	-0.23199018	0.01170657	-0.02520312	-7.39038078	0.33536858	-0.16028793
1.11	1.1292746	3.29877001	0.69025927	-0.76392658	1.09269126	-0.61922745	-29.10588268	2.85985253	-2.21721495	-13.44866158	14.99846345	20.46593477	-65.97516709	35.29428589	65.67899851	0	34.32	30.42326055	-1.1607173	0.04345725	-0.00800327	-0.00954351	0.46561491	-0.06282178	-0.10279887	0.5477809	-0.07199296	-0.11974968	0.5477809	-0.0990475	-0.11974968	0.41083568	-0.0990475	-0.11974968	0.27389045	-0.08987658	-0.05139944	-0.23054102	0.01494378	-0.02329516	-7.34421575	0.4281078	-0.1481536
1.12	1.08852062	3.21222037	0.69783118	-0.76400641	1.09274387	-0.61874605	-28.67361982	2.7264341	-1.33981575	-13.54797666	14.99839973	20.19656386	-65.99626348	35.43025752	69.17692246	0	34.32	30.42326055	-1.1607173	0.04428376	-0.00521598	-0.0086938	0.47447036	-0.04094292	-0.09364623	0.55819905	-0.04692006	-0.10908784	0.55819905	-0.06455235	-0.10908784	0.41864929	-0.06455235	-0.10908784	0.27909953	-0.05857538	-0.04682312	-0.23182162	0.0126353	-0.02255635	-7.38501111	0.36197454	-0.14345485
1.13	1.09439077	3.2397594	0.70531495	-0.76408103	1.09278084	-0.61876069	-28.52844597	2.71520232	-1.06059085	-13.5496837	14.99852687	20.09849212	-65.3741981	35.35214615	68.04020277	0	34.32	30.42326055	-1.1607173	0.04452855	-0.00514564	-0.0099166	0.47709314	-0.0403908	-0.10681771	0.56128467	-0.04628734	-0.1244312	0.56128467	-0.06368186	-0.1244312	0.42096351	-0.06368186	-0.1244312	0.28064234	-0.05778548	-0.05340886	-0.23225086	0.01256674	-0.02179356	-7.3986851	0.36001045	-0.13860364
